<svg width="1540" height="227" viewBox="0 0 1540 227" fill="none" xmlns="http://www.w3.org/2000/svg">
<path d="M524.675 99.1424H585.347V223.92H629.752V99.1424H691.545V59.2013H524.675V99.1424Z" fill="white"/>
<path d="M510.349 58.8741H465.523V223.92H510.349V58.8741Z" fill="white"/>
<path d="M309.452 58.8741V223.92H354.277V58.8741H309.452Z" fill="white"/>
<path d="M421.843 58.8741L354.277 223.92H400.482L465.477 58.8741H421.843Z" fill="white"/>
<path d="M871.408 58.8741L826.933 167.503L782.458 58.8741H705.871V223.92H750.697V88.9993L803.819 223.92H850.024L903.169 88.976V223.92H947.995V58.8741H871.408Z" fill="white"/>
<path d="M487.913 0.00242559C482.022 -0.0536481 476.35 2.23121 472.143 6.35494C467.936 10.4787 465.538 16.1039 465.477 21.9946C465.477 27.9574 467.845 33.676 472.062 37.8924C476.278 42.1088 481.997 44.4775 487.96 44.4775C493.922 44.4775 499.641 42.1088 503.857 37.8924C508.074 33.676 510.443 27.9574 510.443 21.9946C510.415 19.0689 509.81 16.1775 508.661 13.4866C507.513 10.7957 505.844 8.35829 503.75 6.31457C501.656 4.27085 499.179 2.66109 496.461 1.57783C493.744 0.494575 490.838 -0.0408196 487.913 0.00242559Z" fill="white"/>
<path d="M1045.85 185.662C1033.07 185.662 1022.27 181.689 1014.63 174.187C1006.98 166.685 1002.94 156.074 1002.66 143.407V139.714C1002.89 127.047 1007.03 116.343 1014.63 108.935C1022.22 101.526 1033.07 97.4596 1045.85 97.4596C1051.51 97.2705 1057.15 98.2313 1062.43 100.284C1067.71 102.337 1072.51 105.439 1076.56 109.402C1084.27 117.278 1088.45 128.66 1088.41 141.561C1088.41 154.462 1084.27 165.843 1076.56 173.719C1072.51 177.684 1067.71 180.787 1062.43 182.84C1057.15 184.892 1051.51 185.852 1045.85 185.662ZM1131.83 141.561C1131.71 108.982 1118.32 84.6991 1091.89 69.3443C1078.19 61.4503 1062.62 57.3746 1046.81 57.5419C1042.7 57.5484 1038.6 57.7825 1034.51 58.243C1010.47 60.9073 991.115 70.9335 977.022 88.0879C964.939 102.835 959.166 120.293 959.283 141.561C959.143 162.828 964.939 180.38 976.998 195.034C991.021 212.188 1010.44 222.214 1034.49 224.879C1038.58 225.321 1042.69 225.547 1046.81 225.556C1062.61 225.76 1078.18 221.725 1091.89 213.871C1118.32 198.516 1131.62 174.14 1131.83 141.654V141.561Z" fill="white"/>
<path d="M185.801 226.323H105.801V186.323H185.801V226.323Z" fill="white"/>
<path d="M0 61.3232V226.369H44.8256V61.3232H0Z" fill="white"/>
<path d="M105.826 226.37V61.3233H61V226.37H105.826Z" fill="white"/>
<path d="M120 61.3695H200V101.37H120V61.3695Z" fill="white"/>
<path d="M199.975 61.3233V226.37H244.801V61.3233H199.975Z" fill="white"/>
<circle cx="1261" cy="142" r="84" fill="url(#paint0_radial_622_9153)"/>
<circle cx="1456" cy="142" r="82.5" stroke="white" stroke-width="3"/>
<line x1="1457.5" y1="69.6667" x2="1457.5" y2="126.445" stroke="white" stroke-width="3"/>
<line x1="1457.5" y1="157.556" x2="1457.5" y2="214.333" stroke="white" stroke-width="3"/>
<line x1="1383.67" y1="140.5" x2="1440.44" y2="140.5" stroke="white" stroke-width="3"/>
<line x1="1471.56" y1="140.5" x2="1528.33" y2="140.5" stroke="white" stroke-width="3"/>
<defs>
<radialGradient id="paint0_radial_622_9153" cx="0" cy="0" r="1" gradientUnits="userSpaceOnUse" gradientTransform="translate(1261 142) rotate(90) scale(84 89.9726)">
<stop offset="0.176827" stop-color="#FFFF00"/>
<stop offset="0.483333" stop-color="#FF77FF"/>
<stop offset="0.695529" stop-color="#9407FF"/>
<stop offset="1" stop-color="#3481EF"/>
</radialGradient>
</defs>
</svg>
