<svg xmlns="http://www.w3.org/2000/svg" width="201" height="40" viewBox="0 0 201 40" fill="none">
  <path d="M93.5442 17.3015H104.265V39.0767H112.111V17.3015H123.03V10.3313H93.5442V17.3015Z" fill="white"/>
  <path d="M91.0127 10.2742H83.0919V39.0767H91.0127V10.2742Z" fill="white"/>
  <path d="M55.5137 10.2742V39.0767H63.4345V10.2742H55.5137Z" fill="white"/>
  <path d="M75.3735 10.2742L63.4345 39.0767H71.5989L83.0836 10.2742H75.3735Z" fill="white"/>
  <path d="M154.813 10.2742L146.954 29.2311L139.095 10.2742H125.562V39.0767H133.483V15.5314L142.869 39.0767H151.034L160.425 15.5273V39.0767H168.346V10.2742H154.813Z" fill="white"/>
  <path d="M87.0482 0.000423293C86.0072 -0.00936221 85.005 0.389372 84.2616 1.10901C83.5182 1.82865 83.0945 2.81032 83.0836 3.83831C83.0836 4.87889 83.5022 5.87686 84.2472 6.61266C84.9923 7.34847 86.0028 7.76184 87.0564 7.76184C88.1101 7.76184 89.1205 7.34847 89.8656 6.61266C90.6106 5.87686 91.0292 4.87889 91.0292 3.83831C91.0244 3.32774 90.9174 2.82316 90.7144 2.35357C90.5115 1.88397 90.2165 1.45862 89.8466 1.10197C89.4766 0.745312 89.0389 0.464391 88.5587 0.27535C88.0784 0.0863091 87.5651 -0.0071235 87.0482 0.000423293Z" fill="white"/>
  <path d="M185.637 32.4002C183.378 32.4002 181.47 31.7068 180.119 30.3976C178.769 29.0884 178.055 27.2368 178.005 25.0262V24.3818C178.046 22.1712 178.777 20.3033 180.119 19.0104C181.462 17.7175 183.378 17.0078 185.637 17.0078C186.637 16.9748 187.634 17.1425 188.566 17.5007C189.499 17.8589 190.348 18.4003 191.063 19.092C192.426 20.4664 193.165 22.4527 193.157 24.704C193.157 26.9553 192.426 28.9416 191.063 30.316C190.349 31.0079 189.499 31.5494 188.566 31.9076C187.634 32.2659 186.637 32.4334 185.637 32.4002ZM200.83 24.704C200.809 19.0185 198.443 14.781 193.772 12.1014C191.351 10.7238 188.6 10.0125 185.806 10.0417C185.08 10.0429 184.355 10.0837 183.634 10.1641C179.384 10.629 175.965 12.3787 173.475 15.3724C171.34 17.9459 170.32 20.9925 170.34 24.704C170.316 28.4154 171.34 31.4784 173.471 34.0356C175.948 37.0293 179.38 38.779 183.63 39.2439C184.353 39.3211 185.079 39.3605 185.806 39.3622C188.598 39.3978 191.349 38.6936 193.772 37.3229C198.443 34.6433 200.793 30.3895 200.83 24.7203V24.704Z" fill="white"/>
  <path d="M32.8314 39.4961H18.6952V32.5156H32.8314V39.4961Z" fill="white"/>
  <path d="M0 10.7017V39.5041H7.92078V10.7017H0Z" fill="white"/>
  <path d="M18.6996 39.5041V10.7017H10.7788V39.5041H18.6996Z" fill="white"/>
  <path d="M21.2043 10.7097H35.3404V17.6902H21.2043V10.7097Z" fill="white"/>
  <path d="M35.336 10.7017V39.5041H43.2568V10.7017H35.336Z" fill="white"/>
</svg>