<svg xmlns="http://www.w3.org/2000/svg" width="26" height="26" viewBox="0 0 26 26" fill="none">
  <path fill-rule="evenodd" clip-rule="evenodd" d="M4.86614 14.185C5.42305 13.5203 6.41335 13.4329 7.07805 13.9898L10.801 17.109C10.9734 17.2535 11.1886 17.3197 11.4001 17.3076C11.762 17.2869 11.992 16.9471 12.1696 16.6311L18.4995 5.36658C19.1642 4.80967 20.1545 4.89705 20.7114 5.56175C21.2683 6.22644 21.1809 7.21674 20.5163 7.77365L14.6107 17.9902C13.9097 19.2029 13.0188 20.5018 11.6225 20.6124C10.7523 20.6813 9.86111 20.4183 9.15095 19.8233L5.06131 16.3969C4.39662 15.8399 4.30924 14.8497 4.86614 14.185Z" fill="black"/>
</svg>