<svg xmlns="http://www.w3.org/2000/svg" width="26" height="26" viewBox="0 0 26 26" fill="none">
  <path d="M4.875 19.3125C4.875 18.2185 5.3096 17.1693 6.08318 16.3957C6.85677 15.6221 7.90598 15.1875 9 15.1875H17.25C18.344 15.1875 19.3932 15.6221 20.1668 16.3957C20.9404 17.1693 21.375 18.2185 21.375 19.3125C21.375 19.8595 21.1577 20.3841 20.7709 20.7709C20.3841 21.1577 19.8595 21.375 19.3125 21.375H6.9375C6.39049 21.375 5.86589 21.1577 5.47909 20.7709C5.0923 20.3841 4.875 19.8595 4.875 19.3125Z" stroke="black" stroke-width="2.0625" stroke-linejoin="round"/>
  <path d="M13.125 11.0625C14.8336 11.0625 16.2188 9.67738 16.2188 7.96875C16.2188 6.26012 14.8336 4.875 13.125 4.875C11.4164 4.875 10.0312 6.26012 10.0312 7.96875C10.0312 9.67738 11.4164 11.0625 13.125 11.0625Z" stroke="black" stroke-width="2.0625"/>
</svg>